<mxfile host="app.diagrams.net" modified="2020-12-05T10:00:41.850Z" agent="5.0 (X11)" etag="LjYGo1gKTJv4y0WHIVnF" version="13.10.8" type="github">
  <diagram id="vtLuwGIv9xebMNcSjZj7" name="Page-1">
    <mxGraphModel dx="1216" dy="767" grid="1" gridSize="10" guides="1" tooltips="1" connect="1" arrows="1" fold="1" page="1" pageScale="1" pageWidth="850" pageHeight="1100" math="0" shadow="0">
      <root>
        <mxCell id="0" />
        <mxCell id="1" parent="0" />
        <mxCell id="Ci0zy3aDHtbK-gbd4pcx-1" value=":SunLight" style="shape=umlLifeline;perimeter=lifelinePerimeter;whiteSpace=wrap;html=1;container=1;collapsible=0;recursiveResize=0;outlineConnect=0;" vertex="1" parent="1">
          <mxGeometry x="370" y="120" width="100" height="300" as="geometry" />
        </mxCell>
        <mxCell id="Ci0zy3aDHtbK-gbd4pcx-2" value=":EventBus" style="shape=umlLifeline;perimeter=lifelinePerimeter;whiteSpace=wrap;html=1;container=1;collapsible=0;recursiveResize=0;outlineConnect=0;" vertex="1" parent="1">
          <mxGeometry x="160" y="120" width="100" height="300" as="geometry" />
        </mxCell>
        <mxCell id="Ci0zy3aDHtbK-gbd4pcx-3" value="AddGameObjectEvent" style="html=1;verticalAlign=bottom;endArrow=open;endFill=0;" edge="1" parent="1">
          <mxGeometry width="80" relative="1" as="geometry">
            <mxPoint x="420" y="201" as="sourcePoint" />
            <mxPoint x="209.5" y="201" as="targetPoint" />
          </mxGeometry>
        </mxCell>
        <mxCell id="Ci0zy3aDHtbK-gbd4pcx-4" value=":GOCAppState" style="shape=umlLifeline;perimeter=lifelinePerimeter;container=1;collapsible=0;recursiveResize=0;rounded=0;shadow=0;strokeWidth=1;" vertex="1" parent="1">
          <mxGeometry x="560" y="120" width="100" height="300" as="geometry" />
        </mxCell>
        <mxCell id="Ci0zy3aDHtbK-gbd4pcx-5" value="" style="html=1;points=[];perimeter=orthogonalPerimeter;" vertex="1" parent="Ci0zy3aDHtbK-gbd4pcx-4">
          <mxGeometry x="45" y="120" width="10" height="70" as="geometry" />
        </mxCell>
        <mxCell id="Ci0zy3aDHtbK-gbd4pcx-6" value="GameObjectsControllerAppState" style="shape=note2;boundedLbl=1;whiteSpace=wrap;html=1;size=25;verticalAlign=top;align=center;" vertex="1" parent="1">
          <mxGeometry x="480" y="50" width="220" height="60" as="geometry" />
        </mxCell>
        <mxCell id="Ci0zy3aDHtbK-gbd4pcx-7" value="" style="endArrow=none;dashed=1;html=1;entryX=0.5;entryY=1;entryDx=0;entryDy=0;entryPerimeter=0;exitX=0.46;exitY=0;exitDx=0;exitDy=0;exitPerimeter=0;" edge="1" parent="1" target="Ci0zy3aDHtbK-gbd4pcx-6">
          <mxGeometry width="50" height="50" relative="1" as="geometry">
            <mxPoint x="621" y="120" as="sourcePoint" />
            <mxPoint x="725" y="390" as="targetPoint" />
          </mxGeometry>
        </mxCell>
        <mxCell id="Ci0zy3aDHtbK-gbd4pcx-8" value="onAddGameObjectEvent" style="html=1;verticalAlign=bottom;endArrow=block;entryX=0.48;entryY=0.8;entryDx=0;entryDy=0;entryPerimeter=0;" edge="1" parent="1">
          <mxGeometry width="80" relative="1" as="geometry">
            <mxPoint x="209.5" y="240" as="sourcePoint" />
            <mxPoint x="608" y="240" as="targetPoint" />
          </mxGeometry>
        </mxCell>
        <mxCell id="Ci0zy3aDHtbK-gbd4pcx-9" value="" style="html=1;points=[];perimeter=orthogonalPerimeter;" vertex="1" parent="1">
          <mxGeometry x="610" y="260" width="10" height="40" as="geometry" />
        </mxCell>
        <mxCell id="Ci0zy3aDHtbK-gbd4pcx-10" value="createGameObject" style="edgeStyle=orthogonalEdgeStyle;html=1;align=left;spacingLeft=2;endArrow=block;rounded=0;entryX=1;entryY=0;" edge="1" target="Ci0zy3aDHtbK-gbd4pcx-9" parent="1">
          <mxGeometry relative="1" as="geometry">
            <mxPoint x="615" y="240" as="sourcePoint" />
            <Array as="points">
              <mxPoint x="640" y="240" />
            </Array>
          </mxGeometry>
        </mxCell>
        <mxCell id="Ci0zy3aDHtbK-gbd4pcx-11" value=":MainActor" style="shape=umlLifeline;perimeter=lifelinePerimeter;whiteSpace=wrap;html=1;container=1;collapsible=0;recursiveResize=0;outlineConnect=0;" vertex="1" parent="1">
          <mxGeometry x="780" y="120" width="100" height="300" as="geometry" />
        </mxCell>
        <mxCell id="Ci0zy3aDHtbK-gbd4pcx-15" value="" style="html=1;points=[];perimeter=orthogonalPerimeter;" vertex="1" parent="Ci0zy3aDHtbK-gbd4pcx-11">
          <mxGeometry x="45" y="170" width="10" height="40" as="geometry" />
        </mxCell>
        <mxCell id="Ci0zy3aDHtbK-gbd4pcx-12" value="onAddOther" style="html=1;verticalAlign=bottom;endArrow=open;exitX=1.1;exitY=0.725;exitDx=0;exitDy=0;exitPerimeter=0;endFill=0;" edge="1" parent="1" source="Ci0zy3aDHtbK-gbd4pcx-9" target="Ci0zy3aDHtbK-gbd4pcx-11">
          <mxGeometry width="80" relative="1" as="geometry">
            <mxPoint x="500" y="360" as="sourcePoint" />
            <mxPoint x="580" y="360" as="targetPoint" />
          </mxGeometry>
        </mxCell>
        <mxCell id="Ci0zy3aDHtbK-gbd4pcx-13" value=":SunActor" style="shape=umlLifeline;perimeter=lifelinePerimeter;whiteSpace=wrap;html=1;container=1;collapsible=0;recursiveResize=0;outlineConnect=0;" vertex="1" parent="1">
          <mxGeometry x="950" y="270" width="100" height="300" as="geometry" />
        </mxCell>
        <mxCell id="Ci0zy3aDHtbK-gbd4pcx-14" value="&amp;lt;&amp;lt;create&amp;gt;&amp;gt;" style="html=1;verticalAlign=bottom;endArrow=open;endFill=0;" edge="1" parent="1">
          <mxGeometry width="80" relative="1" as="geometry">
            <mxPoint x="830" y="290" as="sourcePoint" />
            <mxPoint x="940" y="290" as="targetPoint" />
          </mxGeometry>
        </mxCell>
        <mxCell id="Ci0zy3aDHtbK-gbd4pcx-16" value="gobjects:" style="shape=umlLifeline;perimeter=lifelinePerimeter;whiteSpace=wrap;html=1;container=1;collapsible=0;recursiveResize=0;outlineConnect=0;" vertex="1" parent="1">
          <mxGeometry x="40" y="120" width="100" height="300" as="geometry" />
        </mxCell>
        <mxCell id="Ci0zy3aDHtbK-gbd4pcx-17" value="addGameObject" style="html=1;verticalAlign=bottom;endArrow=block;" edge="1" parent="1">
          <mxGeometry width="80" relative="1" as="geometry">
            <mxPoint x="829.5" y="330" as="sourcePoint" />
            <mxPoint x="89.5" y="330" as="targetPoint" />
          </mxGeometry>
        </mxCell>
      </root>
    </mxGraphModel>
  </diagram>
</mxfile>
